<svg t="1576200710617" class="icon" viewBox="0 0 1024 1024" version="1.1" xmlns="http://www.w3.org/2000/svg" p-id="2915" xmlns:xlink="http://www.w3.org/1999/xlink" width="200" height="200"><defs><style type="text/css"></style></defs><path d="M312.838 470.637c-15.109-15.442-39.893-15.745-55.248-0.632-15.472 15.109-15.775 39.863-0.632 55.308L419.104 691.21c7.255 7.435 17.229 11.664 27.625 11.758h0.303a39.133 39.133 0 0 0 27.503-11.275l309.217-305.437c15.322-15.172 15.502-39.926 0.3-55.311-15.079-15.262-39.833-15.535-55.278-0.3L447.545 608.426 312.838 470.637zM864.083 198.81c12.727 4.379 21.249 16.351 21.249 29.799v363.074c-9.671 215.281-348.597 346.361-362.984 351.832a31.558 31.558 0 0 1-11.182 2.054c-3.807 0-7.618-0.692-11.182-2.054C485.567 938.044 146.611 806.964 137 593.074V228.609c0-13.448 8.523-25.419 21.216-29.799L500.889 80.696a31.81 31.81 0 0 1 20.521 0L864.083 198.81z" p-id="2916" fill="#bfbfbf"></path></svg>