<svg t="1576200734732" class="icon" viewBox="0 0 1024 1024" version="1.1" xmlns="http://www.w3.org/2000/svg" p-id="3916" xmlns:xlink="http://www.w3.org/1999/xlink" width="200" height="200"><defs><style type="text/css"></style></defs><path d="M469.3 828.3h97.8v97.8h-97.8v-97.8z m179.4 0h97.8v97.8h-97.8v-97.8z m179.3 0h97.8v97.8H828v-97.8zM180.8 657.8c-10.2 10.2-16.6 22.6-19.6 35.6L97.8 887.7l0.3 0.3c-3.1 10.1-0.7 21.5 7.3 29.6 7.8 7.8 18.9 10.2 28.9 7.5l0.1 0.1L329.8 862l-0.1-0.1c13-3.1 25.5-9.5 35.6-19.6L789.6 418 605.1 233.4 180.8 657.8zM905.5 302c29.1-29.1 25.1-99.8-14.1-141.3l-14.7-15.6-15.1-14.2C822.3 91.5 750.1 88.4 721 117.5l-45.3 45.3 184.5 184.5 45.3-45.3z m0 0" p-id="3917" fill="#bfbfbf"></path></svg>